<svg width="77" height="77" viewBox="0 0 77 77" fill="none" xmlns="http://www.w3.org/2000/svg">
<path d="M76.4021 40.6976C76.4021 61.5486 57.499 76.4517 36.6481 76.4517C15.7971 76.4517 0.894043 59.5486 0.894043 38.6976C0.894043 17.8467 20.7971 0.943604 41.6481 0.943604C62.499 0.943604 76.4021 19.8467 76.4021 40.6976Z" fill="#D7E8EA"/>
<path fill-rule="evenodd" clip-rule="evenodd" d="M53.8826 6.11954C54.0047 5.23839 54.2067 4.33139 54.61 3.54413L56.3901 4.45588C56.137 4.94987 55.9738 5.59908 55.8636 6.39408C55.7715 7.05853 55.7236 7.76165 55.6731 8.50265C55.6632 8.64824 55.6532 8.79529 55.6427 8.9438C55.5807 9.8227 55.5028 10.7506 55.32 11.5962C55.1381 12.4375 54.8334 13.2952 54.2513 13.9759C53.5525 14.7932 52.8035 16.0147 52.024 17.2859C51.9214 17.4532 51.8183 17.6214 51.7147 17.7896C51.2825 18.4913 50.8444 19.188 50.4226 19.7734C50.0185 20.3342 49.5618 20.8908 49.0738 21.2327C48.3241 21.7656 47.4847 21.5843 46.9175 21.3865C46.4922 21.2381 45.9996 20.9968 45.5281 20.7658C45.3686 20.6877 45.2116 20.6107 45.0604 20.539C43.7637 19.9236 42.3389 19.3939 40.6629 19.7336C38.8604 20.099 37.4171 20.9746 36.3812 21.9464C35.4652 22.8058 34.9226 23.6866 34.706 24.2838C34.7115 24.2862 34.7172 24.2885 34.723 24.291C35.0705 24.4351 35.6261 24.5419 36.3108 24.6311C36.5525 24.6626 36.8253 24.6933 37.0988 24.7241C37.507 24.7699 37.9165 24.816 38.2261 24.8652C38.491 24.9073 38.7997 24.9672 39.0572 25.0709C39.1814 25.121 39.3814 25.2149 39.5563 25.3908C39.7616 25.5973 39.9443 25.9382 39.882 26.3619C39.8085 26.8614 39.4798 27.281 39.2087 27.5609C38.9008 27.8788 38.4981 28.1878 38.0363 28.4554C37.1156 28.989 35.8629 29.4134 34.4829 29.3525C32.1967 29.2516 30.906 28.7952 30.057 28.2077C30.0454 28.21 30.0324 28.2128 30.0182 28.2163C29.8441 28.2582 29.5926 28.3654 29.328 28.5501C28.7848 28.9293 28.3969 29.4771 28.366 30.0679C28.2944 31.4354 27.5744 32.3568 26.8273 32.9491C26.2119 33.437 25.5163 33.7442 25.1439 33.9088C25.1156 33.9213 25.0891 33.933 25.0647 33.9439C25.0587 33.9549 25.0514 33.9695 25.0434 33.9884C25.0013 34.0875 24.9682 34.2427 24.9814 34.4256C25.0054 34.7583 25.1786 35.1744 25.7571 35.4662L25.7637 35.4695L25.7702 35.4729C25.9277 35.5553 26.1119 35.5814 26.4361 35.4837C26.7961 35.3752 27.2174 35.1472 27.7782 34.8105C27.8798 34.7495 27.9854 34.6851 28.0949 34.6183C29.1017 34.0043 30.4366 33.1902 31.991 32.9925L32.0023 32.9911L32.0023 32.9911C32.8706 32.8907 33.616 32.9769 34.2755 33.2162C34.93 33.4537 35.4438 33.8219 35.8734 34.2048C36.1743 34.473 36.4687 34.783 36.7292 35.0574C36.8203 35.1533 36.9072 35.2449 36.9889 35.3288C37.3295 35.6789 37.6425 35.9683 37.9968 36.1933L38.0079 36.2004L38.0079 36.2005C38.4867 36.5135 39.0125 36.4712 39.8643 36.1426C40.0714 36.0628 40.2803 35.9731 40.5053 35.8759L40.5384 35.8616C40.7478 35.7712 40.9735 35.6737 41.1977 35.5861C41.6566 35.4068 42.2173 35.2234 42.8042 35.2234C43.3396 35.2234 43.9934 35.3583 44.6307 35.5516C45.2842 35.7498 45.99 36.0309 46.6459 36.3692C47.2948 36.7038 47.937 37.1159 48.4324 37.5911C48.9029 38.0425 49.3922 38.6978 49.3922 39.5138C49.3922 40.3665 48.8843 40.9852 48.3501 41.3838C47.8167 41.7818 47.135 42.0611 46.4541 42.2561C45.0888 42.6469 43.4397 42.778 42.208 42.6451C41.0024 42.515 39.4902 42.1066 37.9931 41.6333C36.6159 41.1979 35.1928 40.688 33.9518 40.2434C33.8321 40.2005 33.7142 40.1582 33.5981 40.1167C33.4719 40.0721 33.3451 40.027 33.2175 39.9817C30.5512 39.0336 27.5828 37.9781 24.2575 39.5065L24.2541 39.5081C22.2918 40.401 20.8105 41.1137 19.7464 41.9871C18.7382 42.8145 18.1206 43.7754 17.9147 45.2183C17.7129 46.6323 18.2222 48.5931 19.2156 50.3627C20.22 52.1518 21.5453 53.4402 22.6966 53.7873L22.7064 53.7902L22.7064 53.7903C23.3614 53.995 24.2179 54.1214 25.2097 54.2145C25.8045 54.2702 26.3973 54.3104 27.0013 54.3514C27.4209 54.3798 27.8459 54.4086 28.2807 54.4433C29.2963 54.5242 30.3219 54.6349 31.1845 54.8534C31.9995 55.0598 32.9149 55.4193 33.4317 56.1818C34.1691 57.2488 34.5642 58.7276 34.8529 60.1761C34.9976 60.9026 35.1225 61.6625 35.2447 62.4064L35.2529 62.4562C35.3789 63.2227 35.5027 63.9727 35.6471 64.6901C36.144 67.1601 38.9064 69.9041 42.7273 70.0276C44.4959 70.0688 45.4473 69.3909 46.2292 68.5311C46.5192 68.2123 46.7606 67.8987 47.0208 67.5608C47.1526 67.3896 47.2891 67.2122 47.4392 67.0248C47.8497 66.5122 48.344 65.9517 48.9909 65.559C49.2234 65.4179 49.5005 65.085 49.7927 64.4567C50.0756 63.8484 50.3132 63.0969 50.5478 62.2762C50.6085 62.0637 50.6696 61.8446 50.7312 61.6233C50.8987 61.0219 51.0707 60.4044 51.2533 59.8608C51.4946 59.1423 51.8131 58.3571 52.3056 57.8284C53.0912 56.9851 54.1695 56.474 55.0879 56.0386C55.1275 56.0199 55.1668 56.0012 55.2058 55.9827C56.213 55.5044 57.1035 55.0662 57.8238 54.3666C58.3425 53.8627 58.4441 53.1505 58.2853 52.4162C58.2072 52.0554 58.0741 51.7409 57.9467 51.5274C57.9094 51.4649 57.877 51.4185 57.852 51.3861C57.3652 51.1981 57.0959 50.7601 56.9733 50.4784C56.8027 50.0865 56.7333 49.615 56.7895 49.1335C56.9082 48.1155 57.5781 47.0863 58.9655 46.4981C60.0866 46.0141 61.0524 45.5616 61.6436 45.0966C61.9375 44.8655 62.0372 44.7075 62.0635 44.6384C62.0638 44.6375 62.0644 44.6365 62.0651 44.6354C62.0709 44.6255 62.0849 44.6017 62.0242 44.4985C61.9599 44.3892 61.7515 44.1939 61.3015 43.9469C60.9188 43.7367 60.4875 43.5543 60.0602 43.3735C60.0163 43.3549 59.9723 43.3363 59.9285 43.3177C59.7064 43.2234 59.4746 43.1236 59.2785 43.0247C59.12 42.9448 58.8374 42.7966 58.6333 42.5679C58.5233 42.4446 58.3333 42.1842 58.33 41.8066C58.3265 41.394 58.5443 41.1066 58.7174 40.9526C58.8779 40.8097 59.0549 40.7266 59.1795 40.6769C59.3153 40.6227 59.4627 40.5796 59.6117 40.5434C60.7033 40.2784 61.3747 40.2764 61.991 40.2951C62.0334 40.2964 62.0751 40.2978 62.1164 40.2991C62.6185 40.3154 63.0539 40.3295 63.7852 40.193C64.361 40.0854 64.8156 39.9344 65.2909 39.7765C65.5113 39.7033 65.7362 39.6286 65.9797 39.5561C66.686 39.3457 67.5399 39.1674 68.4592 39.5343C68.8844 39.7018 69.1584 40.0222 69.3311 40.2954C69.5076 40.5746 69.6346 40.8934 69.7324 41.1945C69.906 41.7286 70.0386 42.3753 70.159 42.9622C70.1728 43.0296 70.1865 43.0961 70.2 43.1616C70.3401 43.84 70.471 44.426 70.6397 44.8669C70.693 45.006 70.7406 45.1051 70.7793 45.1748C70.9133 44.9717 71.0661 44.6281 71.205 44.1355C71.5206 43.0168 71.6615 41.5085 71.5968 40.3142L71.596 40.3001L71.5961 40.3001C71.545 39.027 71.5091 37.9061 71.6679 37.0254C71.8401 36.0707 72.2693 35.2466 73.2207 34.7574L73.2309 34.7521L73.2411 34.7471C73.6804 34.5338 74.0954 34.6403 74.348 34.7646C74.5773 34.8774 74.7586 35.0417 74.8769 35.1584C75.0306 35.3098 75.2212 35.5322 75.389 35.728C75.4633 35.8147 75.5331 35.8962 75.5933 35.964C76.1222 36.5599 76.4947 36.8125 76.8125 36.8125V38.8125C75.5053 38.8125 74.59 37.8465 74.0975 37.2916C73.9688 37.1466 73.8684 37.0287 73.7834 36.929C73.7792 36.924 73.775 36.9191 73.7709 36.9142C73.717 37.0304 73.6722 37.1807 73.6362 37.3803C73.5245 37.9996 73.5407 38.878 73.5942 40.213C73.6683 41.5956 73.5122 43.3233 73.1299 44.6785C72.9421 45.3445 72.6725 46.0208 72.2744 46.5157C72.0701 46.7697 71.7948 47.0225 71.4324 47.1724C71.0483 47.3313 70.6316 47.3467 70.2267 47.2156C69.3843 46.9429 68.983 46.1334 68.7719 45.5818C68.5357 44.9647 68.3763 44.2193 68.2414 43.5662C68.2283 43.5029 68.2154 43.4404 68.2027 43.3788C68.0762 42.7638 67.967 42.233 67.8303 41.8126C67.7565 41.5852 67.6907 41.4435 67.6409 41.3646C67.3916 41.2883 67.0958 41.3105 66.5506 41.4729C66.4078 41.5154 66.2411 41.5706 66.0553 41.6322C65.5368 41.8039 64.8689 42.0251 64.1524 42.159C63.4366 42.2927 62.9096 42.3139 62.4661 42.3087C62.9261 42.5806 63.4395 42.9599 63.748 43.4844C64.0995 44.0818 64.1683 44.7311 63.9325 45.3502C63.7198 45.9086 63.2978 46.34 62.8801 46.6686C62.0486 47.3226 60.8329 47.8704 59.755 48.3357L59.7483 48.3386C58.9728 48.6666 58.8055 49.112 58.776 49.3653C58.7649 49.46 58.7715 49.5394 58.7829 49.5975C58.9931 49.7012 59.1483 49.8439 59.2438 49.9421C59.4032 50.1059 59.5439 50.301 59.664 50.5024C59.9055 50.9069 60.1173 51.4256 60.2401 51.9934C60.4829 53.1163 60.4098 54.643 59.2172 55.8013C58.2292 56.7609 57.0459 57.3229 56.0729 57.785L56.0638 57.7893C55.0246 58.2829 54.2766 58.6467 53.769 59.1917C53.5979 59.3754 53.3882 59.7859 53.1492 60.4975C52.9846 60.9878 52.8343 61.5271 52.6723 62.1087C52.6076 62.3411 52.541 62.5803 52.4708 62.8258C52.2339 63.6545 51.9608 64.5376 51.6062 65.3C51.261 66.0423 50.7742 66.8162 50.0288 67.2687C49.6978 67.4696 49.3844 67.7954 49.0004 68.2749C48.898 68.4028 48.7865 68.5474 48.6676 68.7016C48.382 69.0719 48.0539 69.4973 47.7089 69.8768C46.6404 71.0516 45.1653 72.0864 42.6756 72.027L42.6676 72.0267C37.9688 71.8771 34.3767 68.5162 33.6863 65.0846C33.5338 64.3265 33.4044 63.5415 33.2794 62.7805L33.2738 62.7467C33.1496 61.9909 33.0295 61.2599 32.8914 60.5669C32.6043 59.1259 32.2668 58.0122 31.7842 57.3157L31.7765 57.3046L31.7766 57.3045C31.6989 57.1891 31.4251 56.9775 30.6935 56.7922C30.0074 56.6184 29.1274 56.5171 28.1217 56.437C27.7412 56.4066 27.3333 56.3788 26.9171 56.3504C26.2827 56.3071 25.6289 56.2626 25.0229 56.2057C24.0052 56.1102 22.9776 55.9698 22.1144 55.7007C20.2293 55.1301 18.5705 53.2992 17.4716 51.3417C16.3608 49.3629 15.6476 46.9478 15.9348 44.9357C16.2178 42.9524 17.1195 41.5557 18.4775 40.4411C19.7792 39.3728 21.5105 38.5591 23.4244 37.6883C23.8658 37.4855 24.3026 37.3201 24.7339 37.1875C23.5817 36.5566 23.0562 35.5347 22.9866 34.5695C22.9518 34.0867 23.03 33.6123 23.2029 33.2058C23.3669 32.8201 23.6661 32.3865 24.1536 32.161C24.2242 32.1283 24.2974 32.0955 24.3723 32.062C24.7558 31.8901 25.1878 31.6966 25.5849 31.3818C26.0252 31.0327 26.3355 30.5973 26.3687 29.9634C26.4426 28.5528 27.3294 27.5062 28.1832 26.9102C28.6172 26.6072 29.0947 26.3816 29.5493 26.272C29.7764 26.2172 30.028 26.1841 30.2825 26.2027C30.5263 26.2206 30.8407 26.2919 31.1201 26.5091C31.5343 26.8197 32.3973 27.2585 34.5711 27.3544C35.4932 27.3952 36.3682 27.1092 37.0271 26.7287C37.0063 26.7264 36.9854 26.7241 36.9644 26.7218C36.6889 26.6914 36.3878 26.6581 36.0523 26.6144C35.3706 26.5255 34.5751 26.3949 33.9566 26.1383C33.6482 26.0104 33.2838 25.8118 33.0125 25.4839C32.704 25.111 32.5665 24.6286 32.6752 24.1111L32.6773 24.1013L32.6796 24.0916C32.9298 23.0088 33.7669 21.6567 35.0128 20.4879C36.2819 19.2972 38.0517 18.2223 40.2656 17.7735C42.606 17.2991 44.534 18.0754 45.9178 18.7321C46.1404 18.8378 46.3397 18.9353 46.5213 19.0243C46.9449 19.2317 47.2725 19.3921 47.5761 19.498C47.794 19.574 47.9005 19.5843 47.9416 19.5836C48.133 19.444 48.4199 19.1316 48.8 18.6041C49.175 18.0838 49.5794 17.4427 50.0117 16.7408C50.112 16.578 50.214 16.4114 50.3175 16.2424C51.0791 14.9986 51.9209 13.6239 52.7313 12.6762C53.0049 12.3562 53.215 11.8682 53.3651 11.1736C53.5143 10.4833 53.5855 9.68523 53.6477 8.8031C53.6574 8.66602 53.6668 8.52666 53.6764 8.38565C53.7266 7.64543 53.78 6.85969 53.8826 6.11954ZM47.9627 19.5811C47.963 19.5815 47.9596 19.5826 47.9517 19.5832C47.9584 19.581 47.9624 19.5807 47.9627 19.5811ZM28.4157 36.756C30.479 36.8753 32.3164 37.5337 33.7989 38.0649C33.9589 38.1223 34.1147 38.1781 34.2663 38.2316L34.2702 38.233C34.3862 38.2745 34.5036 38.3166 34.6223 38.3591C35.8689 38.8057 37.2568 39.303 38.596 39.7264C40.0763 40.1944 41.4279 40.5493 42.4226 40.6566C43.3911 40.7612 44.7805 40.6548 45.9036 40.3333C46.4669 40.172 46.8919 39.9765 47.1541 39.7808C47.2811 39.6861 47.3435 39.6108 47.3712 39.566C47.3941 39.5291 47.3922 39.5164 47.3922 39.5138C47.3922 39.5157 47.3795 39.3525 47.0478 39.0343C46.741 38.74 46.281 38.4312 45.7293 38.1468C45.1847 37.8659 44.5917 37.6297 44.0501 37.4654C43.4922 37.2962 43.0547 37.2234 42.8042 37.2234C42.6054 37.2234 42.3322 37.2901 41.9256 37.4489C41.735 37.5234 41.5385 37.6083 41.3192 37.703L41.2981 37.7121C41.0765 37.8077 40.8331 37.9126 40.584 38.0086C39.6123 38.3834 38.2546 38.7477 36.9192 37.8782C36.368 37.5272 35.9273 37.1058 35.5555 36.7236C35.4349 36.5997 35.3254 36.4843 35.2219 36.3753C34.9833 36.1239 34.7771 35.9067 34.5427 35.6978C34.2301 35.4192 33.9319 35.2192 33.5932 35.0963C33.2606 34.9756 32.8333 34.9091 32.2377 34.9772C31.1336 35.1192 30.168 35.7031 29.1089 36.3435C29.0093 36.4037 28.909 36.4644 28.8076 36.5252C28.6805 36.6016 28.5496 36.6793 28.4157 36.756ZM58.822 49.7088C58.8218 49.7096 58.8179 49.7038 58.8112 49.6894C58.8189 49.7009 58.8223 49.7081 58.822 49.7088ZM59.9142 42.5373C59.9145 42.5371 59.9165 42.5362 59.9204 42.5346C59.9161 42.5366 59.9139 42.5375 59.9142 42.5373ZM67.6122 41.3245C67.6122 41.3244 67.6131 41.3253 67.6149 41.3275C67.6131 41.3257 67.6123 41.3246 67.6122 41.3245ZM57.7976 51.325C57.7977 51.3247 57.8016 51.3279 57.8093 51.3357C57.8014 51.3293 57.7975 51.3253 57.7976 51.325ZM25.0832 33.9155C25.0833 33.9156 25.0821 33.9172 25.0796 33.9199C25.0819 33.9168 25.0831 33.9154 25.0832 33.9155Z" fill="white"/>
<path fill-rule="evenodd" clip-rule="evenodd" d="M30.0852 8.63719C30.2864 10.8041 30.1397 13.3523 28.6902 15.0566C27.2851 16.7251 25.0508 17.4411 23.2232 17.6793C22.2897 17.8009 21.4006 17.8067 20.6815 17.7278C20.3236 17.6885 19.984 17.6257 19.6913 17.5343C19.4414 17.4562 19.0634 17.31 18.795 17.0059L18.7856 16.9953L18.7766 16.9844C18.5149 16.6705 18.3162 16.2065 18.1761 15.8759C18.1385 15.7874 18.102 15.7001 18.066 15.6139C17.941 15.3149 17.8216 15.0294 17.6848 14.7547C17.5061 14.3958 17.3482 14.1642 17.2156 14.0399C17.1655 13.9929 17.1349 13.9768 17.1252 13.9724C17.1239 13.9725 17.1222 13.9727 17.1201 13.9731C17.0131 13.9904 16.8322 14.0374 16.6311 14.7564C16.54 15.0821 16.4714 15.4518 16.3906 15.887L16.3817 15.9352C16.301 16.3698 16.2078 16.865 16.0693 17.3364C15.886 17.9698 15.4578 18.5763 15.0212 19.0825C14.5667 19.6094 14.0212 20.12 13.4953 20.5615C12.9679 21.0045 12.441 21.3942 12.012 21.6781C11.799 21.819 11.5977 21.9422 11.4246 22.0344C11.3393 22.0798 11.2453 22.126 11.1508 22.1636L11.1493 22.1642C11.0894 22.188 10.901 22.2629 10.6738 22.2629C10.4301 22.2629 10.2073 22.18 10.1174 22.1463C9.98505 22.0967 9.84091 22.0318 9.69658 21.9616C9.40533 21.8199 9.0549 21.6277 8.68833 21.4119C7.95702 20.9815 7.10343 20.4232 6.44891 19.9146L7.67605 18.3353C8.24391 18.7766 9.02135 19.2872 9.70279 19.6883C10.0426 19.8883 10.344 20.0524 10.5716 20.1632C10.5904 20.1723 10.6084 20.1809 10.6254 20.189C10.7049 20.1416 10.7997 20.0821 10.9083 20.0102C11.2706 19.7704 11.7368 19.4266 12.2091 19.03C12.6831 18.632 13.1438 18.1969 13.5068 17.7762C13.8869 17.3354 14.0868 16.9931 14.1484 16.7796L14.1499 16.7743L14.1499 16.7743C14.2555 16.4153 14.3324 16.0168 14.4153 15.5702C14.4202 15.5437 14.4251 15.517 14.4301 15.4901C14.5053 15.0844 14.5889 14.6326 14.705 14.2175C14.9405 13.3761 15.4406 12.2189 16.8005 11.9988C17.5521 11.8771 18.1581 12.1822 18.5833 12.5807C18.98 12.9525 19.2652 13.4417 19.4751 13.8631C19.6446 14.2035 19.7978 14.5704 19.9256 14.8765C19.9579 14.9537 19.9885 15.0271 20.0174 15.0952C20.0935 15.2747 20.1578 15.4195 20.216 15.5348C20.2318 15.566 20.246 15.5928 20.2587 15.6159C20.2675 15.6188 20.2771 15.6219 20.2876 15.6252C20.4204 15.6667 20.6252 15.7096 20.8997 15.7397C21.4455 15.7997 22.1739 15.7991 22.9648 15.696C24.5853 15.4849 26.2265 14.8784 27.1615 13.7669L27.1654 13.7623C28.054 12.7189 28.2874 10.9069 28.0938 8.82206C27.9062 6.80119 27.3458 4.80918 26.9768 3.68747L28.8767 3.0625C29.2684 4.25329 29.878 6.40528 30.0852 8.63719ZM20.1815 15.585C20.1816 15.585 20.1828 15.5856 20.185 15.5869C20.1826 15.5857 20.1815 15.585 20.1815 15.585ZM10.8588 20.2868C10.859 20.2871 10.854 20.2858 10.843 20.2821C10.8531 20.2846 10.8586 20.2865 10.8588 20.2868Z" fill="white"/>
<path fill-rule="evenodd" clip-rule="evenodd" d="M7.90656 45.6237C5.97909 43.0668 3.01456 41.875 0.125 41.875V43.875C2.48393 43.875 4.81659 44.8449 6.31186 46.8308L6.31182 46.8308L6.31775 46.8385C6.5615 47.1557 6.79109 47.4492 7.00575 47.7235C7.59555 48.4773 8.07262 49.087 8.42094 49.6509C8.89032 50.4107 8.95068 50.8234 8.86936 51.125L8.86636 51.1361L8.86363 51.1473C8.76435 51.5523 8.58482 51.8476 8.31109 52.2979C8.2285 52.4337 8.13734 52.5837 8.03723 52.755C7.6252 53.4601 7.20895 54.334 7.12561 55.6292L7.12487 55.6408L7.12439 55.6523C7.12304 55.6851 7.12172 55.7183 7.12038 55.7517C7.08153 56.7251 7.03326 57.9346 5.97557 58.5861L7.02445 60.289C9.0352 59.0505 9.0949 56.7697 9.11773 55.8977C9.11921 55.841 9.12054 55.7902 9.12224 55.746C9.18018 54.8768 9.44405 54.3117 9.76402 53.7641C9.81834 53.6711 9.87977 53.5713 9.94527 53.4649C10.2419 52.983 10.622 52.3654 10.8034 51.6343C11.1003 50.5156 10.6728 49.4906 10.1225 48.5998C9.71091 47.9335 9.13313 47.1955 8.5172 46.4086C8.31623 46.1519 8.1112 45.89 7.90656 45.6237Z" fill="white"/>
</svg>
