<svg width="282" height="167" viewBox="0 0 282 167" fill="none" xmlns="http://www.w3.org/2000/svg">
<path d="M114.967 78.5021L122.97 133.687L199.738 130.073L189.918 68.6371L114.967 78.5021Z" fill="#354A67"/>
<path d="M185.069 67.2308C185.069 67.2308 184.093 84.0891 183.859 92.4109C183.625 100.733 248.273 117.728 248.273 117.728L254.067 108.195C254.067 108.195 255.784 75.4744 255.16 65.922C254.282 52.3455 185.069 67.2308 185.069 67.2308Z" fill="#F4B63F"/>
<path d="M264.875 153.338L274.384 95.6614L175.23 86.709L165.016 147.796L264.875 153.338Z" fill="#80D2EA"/>
<path d="M184.669 159.621L192.521 116.946L140.669 104.776L128.204 152.397L184.669 159.621Z" fill="#0094BC"/>
<path d="M202.944 44.4052L203.718 31.5651C203.718 31.5651 199.954 31.9526 199.163 30.6492C198.389 29.3459 198.125 23.7273 198.125 23.7273C198.125 23.7273 194.713 21.9131 195.1 20.0813C195.487 18.2495 199.022 16.4354 199.022 16.4354L199.409 9.67192C199.409 9.67192 204.861 7.85776 209.417 7.85776C213.973 7.85776 217.086 10.9225 217.086 10.9225L224.104 50.1471" fill="white"/>
<path d="M202.944 44.4052L203.718 31.5651C203.718 31.5651 199.954 31.9526 199.163 30.6492C198.389 29.3459 198.125 23.7273 198.125 23.7273C198.125 23.7273 194.713 21.9131 195.1 20.0813C195.487 18.2495 199.022 16.4354 199.022 16.4354L199.409 9.67192C199.409 9.67192 204.861 7.85776 209.417 7.85776C213.973 7.85776 217.086 10.9225 217.086 10.9225L224.104 50.1471" stroke="black" stroke-width="2" stroke-miterlimit="10"/>
<path d="M195.838 10.0067L212.495 13.4765C212.495 13.4765 212.038 17.686 215.028 21.6314C218.018 25.5767 220.287 25.4006 220.287 25.4006C220.287 25.4006 227.903 15.9247 224.385 8.89703C221.167 2.46821 215.221 1.46426 209.083 3.48978C199.444 -5.2816 190.087 4.59941 195.838 10.0067Z" fill="#354A67"/>
<path d="M171.96 103.233C178.846 104.581 181.167 109.288 189.127 109.406C193.282 109.464 200.714 103.389 200.363 98.2904C200.207 95.9854 195.135 95.0672 191.253 94.4812C189.419 94.2077 187.488 92.6059 188.151 90.8673C188.151 90.8673 196.715 90.2617 196.364 87.7418C196.071 85.5734 189.634 85.2804 184.854 85.9641C180.29 86.6283 175.959 88.152 175.959 88.152" fill="white"/>
<path d="M171.96 103.233C178.846 104.581 181.167 109.288 189.127 109.406C193.282 109.464 200.714 103.389 200.363 98.2904C200.207 95.9854 195.135 95.0672 191.253 94.4812C189.419 94.2077 187.488 92.6059 188.151 90.8673C188.151 90.8673 196.715 90.2617 196.364 87.7418C196.071 85.5734 189.634 85.2804 184.854 85.9641C180.29 86.6283 175.959 88.152 175.959 88.152" stroke="black" stroke-width="2" stroke-miterlimit="10"/>
<path d="M171.608 114.504V100.869L169.072 100.693L166.888 115.579L171.608 114.504Z" fill="#009CC6"/>
<path d="M208.264 132.847C208.264 132.847 199.544 143.571 200.09 145.935C200.636 148.299 204.089 149.197 204.089 149.197C204.089 149.197 203.719 151.932 205.533 153.749C207.347 155.565 216.789 156.659 220.593 153.925C224.397 151.19 225.314 137.75 225.314 137.75" fill="white"/>
<path d="M208.264 132.847C208.264 132.847 199.544 143.571 200.09 145.935C200.636 148.299 204.089 149.197 204.089 149.197C204.089 149.197 203.719 151.932 205.533 153.749C207.347 155.565 216.789 156.659 220.593 153.925C224.397 151.19 225.314 137.75 225.314 137.75" stroke="black" stroke-width="2" stroke-miterlimit="10"/>
<path d="M169.638 104.913C169.638 104.913 139.128 99.2087 136.827 81.1393C134.525 63.0698 153.564 49.8254 171.609 44.4534C188.288 39.4916 220.163 38.3195 237.564 41.0544C255.57 43.8869 257.364 63.2847 253.424 81.3541C249.483 99.4236 185.128 69.6139 185.128 69.6139C185.128 69.6139 178.319 70.4343 168.526 72.6027C161.933 74.0678 161.445 78.17 161.445 78.17C161.445 78.17 171.94 82.8778 176.856 87.2536C179.782 89.8712 175.647 106.222 169.638 104.913Z" fill="#F4B63F"/>
<path d="M254.79 77.3689C254.946 86.4134 230.015 136.187 225.587 139.137C221.158 142.087 208.537 136.832 207.054 132.241C205.416 127.221 220.827 91.1603 226.562 82.1353L254.79 77.3689Z" fill="#F4B63F"/>
<path d="M170.282 82.7019L156.139 110.304L150.345 108.585L167.785 81.4321L170.282 82.7019Z" fill="#009CC6"/>
<path d="M202.399 15.2202C204.193 13.9697 206.18 14.7095 206.567 16.2242" stroke="black" stroke-width="2" stroke-miterlimit="10"/>
<path d="M221.275 89.9493L228.395 72.3487" stroke="black" stroke-width="2" stroke-miterlimit="10"/>
<path d="M112.652 142.576H73.2L56.4239 99.3887H0.196289L16.9724 148.884H75.3201H105.462C109.103 148.884 112.191 146.214 112.652 142.576Z" fill="#80D2EA"/>
<path d="M105.461 148.884C109.102 148.884 112.19 146.214 112.651 142.576H73.1997L75.7807 148.884H105.461Z" fill="#75D3EE"/>
</svg>
