<svg width="162" height="234" viewBox="0 0 162 234" fill="none" xmlns="http://www.w3.org/2000/svg">
<path d="M77.4883 38.0519L76.7183 37.8819C76.6583 37.8719 70.7283 36.5519 68.9183 33.1219C67.0683 29.6219 68.3083 24.4919 68.3183 24.4319L68.5483 23.5219L67.6483 23.2419C66.8583 22.9919 64.5783 21.9819 64.4483 20.6619C64.3983 20.1419 64.8583 19.8419 66.2583 19.2119C67.2983 18.7419 68.4683 18.2019 69.1183 17.1719C70.1383 15.5419 70.4883 11.6319 70.5983 9.90191L89.2883 6.08191L99.6283 24.5619L106.688 57.2319L78.0083 59.9719L77.4883 38.0519Z" fill="white"/>
<path d="M88.7683 7.2119L98.6783 24.9219L105.468 56.3419L78.9783 58.8819L78.5083 38.8219L78.4683 37.2419L76.9283 36.9119C75.4983 36.6019 71.1283 35.1719 69.7983 32.6619C68.1283 29.5119 69.2683 24.7319 69.2883 24.6919L69.7483 22.8619L67.9483 22.3019C66.9883 22.0019 65.7583 21.2519 65.4983 20.7319C65.7683 20.5519 66.2983 20.3019 66.6783 20.1319C67.7883 19.6319 69.1683 19.0019 69.9683 17.7119C70.9783 16.1019 71.3883 12.8519 71.5483 10.7419L88.7683 7.2119ZM89.7983 4.9519L69.6283 9.0819C69.6283 9.0819 69.3983 14.8119 68.2583 16.6419C67.1083 18.4719 63.2183 18.4719 63.4483 20.7619C63.6783 23.0519 67.3483 24.2019 67.3483 24.2019C67.3483 24.2019 65.9783 29.7019 68.0383 33.5919C70.0983 37.4819 76.5183 38.8619 76.5183 38.8619L77.0383 61.0719L107.898 58.1119L100.568 24.2019L89.7983 4.9519Z" fill="black"/>
<path d="M50.1081 145.882C50.1081 145.882 50.7981 159.142 50.7081 164.562C50.4481 180.812 47.9881 197.932 47.2781 202.532H146.938L140.508 145.272C140.508 145.272 159.188 139.242 156.178 115.142C153.168 91.0319 141.108 64.5119 124.238 57.2819C107.418 50.0719 75.8981 53.0319 58.5481 60.9019C35.9481 71.1419 23.5881 101.282 25.9981 121.172C28.4081 141.062 50.1081 145.882 50.1081 145.882Z" fill="#354A67"/>
<path d="M63.6683 130.512C62.0383 144.152 55.5583 154.502 50.6783 160.572C50.7083 162.102 50.7283 163.492 50.7083 164.562C50.4483 180.812 47.9883 197.932 47.2783 202.532H146.938L142.398 162.082C136.278 160.212 125.228 154.812 118.508 139.542C111.128 122.772 112.338 69.4219 128.578 59.6219C127.168 58.7019 125.718 57.9019 124.238 57.2719C120.498 55.6719 116.028 54.5719 111.148 53.9119C109.348 65.5419 103.748 91.0319 89.2883 91.6219C72.2883 92.3119 68.9483 68.6619 68.3183 57.3719C64.7583 58.3919 61.4483 59.5619 58.5483 60.8819C57.8583 61.1919 57.1883 61.5219 56.5183 61.8719C59.0683 75.8519 65.6283 114.152 63.6683 130.512Z" fill="#F4B63F"/>
<path d="M132.408 40.2419C132.408 40.2419 125.308 43.6819 117.978 41.8419C110.648 40.0119 107.208 31.3019 107.208 31.3019C107.208 31.3019 97.3583 29.2419 92.9983 24.6619C88.6483 20.0819 89.0983 13.4319 89.0983 13.4319H65.7383C65.7383 13.4319 66.6583 -2.37813 89.1083 1.06187C111.558 4.50187 109.728 29.4719 109.728 29.4719C109.728 29.4719 115.458 27.6419 121.868 29.2419C128.288 30.8419 132.408 40.2419 132.408 40.2419Z" fill="#354A67"/>
<path d="M74.4482 20.5319C75.4588 20.5319 76.2782 19.7126 76.2782 18.7019C76.2782 17.6913 75.4588 16.8719 74.4482 16.8719C73.4375 16.8719 72.6182 17.6913 72.6182 18.7019C72.6182 19.7126 73.4375 20.5319 74.4482 20.5319Z" fill="black"/>
<path d="M50.1082 145.882C58.7482 148.492 72.8082 144.472 72.8082 144.472C72.8082 144.472 75.8182 135.432 74.0182 125.992C72.2082 116.552 50.7182 117.352 50.7182 117.352L50.1082 145.882Z" fill="#354A67"/>
<path d="M140.518 145.272C125.648 147.682 112.588 142.062 112.588 142.062C112.588 142.062 111.588 121.972 113.388 120.162C115.198 118.352 133.478 115.742 133.478 115.742L140.518 145.272Z" fill="#354A67"/>
<path d="M92.8981 141.362C90.4881 144.372 80.5381 146.482 72.8081 144.472C72.8081 144.472 74.3681 138.492 74.5181 135.782C74.6681 133.072 93.8081 138.642 93.8081 138.642L92.8981 141.362Z" fill="white"/>
<path fill-rule="evenodd" clip-rule="evenodd" d="M75.4966 136.127C75.3789 137.575 74.9635 139.653 74.5829 141.361C74.3769 142.285 74.1758 143.123 74.0261 143.731C77.4885 144.458 81.3439 144.393 84.6769 143.814C86.4962 143.498 88.1314 143.033 89.4394 142.479C90.6735 141.957 91.5331 141.39 92.011 140.862L92.5274 139.318C92.0223 139.177 91.3483 138.991 90.5571 138.78C88.7684 138.302 86.3869 137.695 84.0051 137.172C81.6125 136.648 79.2615 136.218 77.518 136.082C76.6331 136.014 75.9845 136.028 75.5853 136.107C75.5518 136.114 75.5223 136.121 75.4966 136.127ZM93.8081 138.642L94.0875 137.682L95.0866 137.972L93.79 141.848L93.6787 141.987C92.9242 142.929 91.6723 143.706 90.2193 144.321C88.7424 144.947 86.955 145.448 85.0193 145.785C81.156 146.456 76.5881 146.488 72.5565 145.44L71.5879 145.188L71.8405 144.219L71.8446 144.204L71.8573 144.154C71.8686 144.111 71.8851 144.046 71.9063 143.963C71.9487 143.796 72.0096 143.555 72.0833 143.256C72.2306 142.658 72.4285 141.833 72.6308 140.926C73.0415 139.083 73.4499 136.988 73.5197 135.727C73.5483 135.209 73.8217 134.813 74.1709 134.559C74.4858 134.33 74.8595 134.213 75.1948 134.146C75.871 134.011 76.7424 134.016 77.673 134.088C79.5604 134.235 82.0225 134.69 84.4336 135.219C86.8556 135.75 89.2685 136.366 91.0732 136.848C91.9763 137.089 92.7286 137.297 93.2557 137.445C93.5193 137.519 93.7266 137.578 93.8683 137.619L94.0306 137.665L94.0875 137.682C94.0878 137.682 94.0875 137.682 93.8081 138.642Z" fill="black"/>
<path d="M104.268 141.152L55.5381 135.202L60.6781 95.3619L108.898 103.562L104.268 141.152Z" fill="#80D2EA"/>
<path d="M59.2383 106.502L107.688 113.362L108.898 103.562L60.6783 95.3619L59.2383 106.502Z" fill="#70C3DB"/>
<path d="M113.398 120.162C113.398 120.162 97.3283 115.892 95.0183 118.062C93.0183 119.932 98.9383 120.972 98.6383 122.222C93.7683 121.122 86.3283 120.312 84.4783 121.262C82.2183 122.432 83.4683 124.322 83.4683 124.322C83.4683 124.322 81.0183 124.322 80.7583 126.132C80.5283 127.672 81.8483 128.702 81.8483 128.702C81.8483 128.702 80.4383 129.522 80.5883 131.222C80.7083 132.612 83.1083 133.282 83.1083 133.282C83.1083 133.282 81.9383 134.882 83.2183 136.172C84.6783 137.632 89.9783 140.392 95.9783 141.442C102.238 142.542 112.598 142.042 112.598 142.042" fill="white"/>
<path fill-rule="evenodd" clip-rule="evenodd" d="M113.655 119.195C113.655 119.195 113.655 119.195 113.398 120.162L113.141 121.128L113.131 121.126L113.098 121.117L112.966 121.082C112.849 121.052 112.677 121.008 112.458 120.952C112.018 120.841 111.386 120.683 110.62 120.502C109.087 120.137 107.024 119.676 104.893 119.281C102.755 118.886 100.579 118.565 98.8128 118.473C97.9272 118.427 97.18 118.441 96.6076 118.52C95.9918 118.605 95.7544 118.742 95.703 118.791L95.7013 118.792C95.6881 118.805 95.6763 118.816 95.6659 118.827C95.8217 118.987 96.1427 119.209 96.6694 119.496C96.8385 119.589 97.0352 119.69 97.2411 119.797C97.6562 120.012 98.1089 120.247 98.4499 120.461C98.7156 120.628 99.0184 120.843 99.248 121.112C99.4826 121.388 99.7531 121.862 99.6107 122.455L99.3804 123.415L98.418 123.197C96.0289 122.658 92.9978 122.187 90.3441 121.97C89.0167 121.861 87.8045 121.817 86.8255 121.856C85.796 121.896 85.1848 122.024 84.9363 122.151C84.5056 122.374 84.3165 122.592 84.2294 122.74C84.1432 122.887 84.1174 123.033 84.1246 123.182C84.1323 123.341 84.1783 123.497 84.2306 123.622C84.2557 123.682 84.2794 123.728 84.2946 123.755C84.301 123.767 84.3056 123.775 84.3079 123.779L85.3286 125.322L83.4724 125.322L83.4652 125.322C83.4559 125.322 83.4387 125.323 83.4148 125.324C83.3667 125.327 83.2929 125.332 83.2015 125.343C83.0148 125.366 82.7758 125.41 82.5418 125.492C82.0553 125.662 81.8012 125.904 81.7481 126.274L81.7473 126.28C81.6813 126.721 81.8309 127.114 82.048 127.438C82.1549 127.598 82.2685 127.725 82.3541 127.811C82.3963 127.854 82.43 127.884 82.4503 127.902C82.4597 127.91 82.466 127.915 82.4688 127.918L83.6291 128.823L82.3594 129.561C82.3569 129.563 82.3524 129.566 82.3462 129.57C82.3278 129.583 82.2952 129.605 82.2534 129.639C82.1685 129.706 82.0538 129.81 81.9431 129.949C81.7275 130.219 81.5374 130.601 81.5844 131.134L81.5846 131.136C81.5895 131.193 81.6203 131.295 81.7626 131.447C81.9076 131.601 82.1219 131.756 82.3785 131.899C82.6294 132.038 82.8844 132.145 83.0806 132.218C83.1773 132.254 83.2563 132.281 83.3092 132.298C83.3355 132.306 83.3551 132.312 83.3669 132.316L83.3781 132.319L83.3794 132.319L84.7676 132.707L83.92 133.866L83.9207 133.865C83.9214 133.864 83.9211 133.864 83.92 133.866C83.9199 133.866 83.9201 133.866 83.92 133.866C83.9176 133.869 83.9118 133.878 83.9038 133.891C83.887 133.917 83.8605 133.961 83.8301 134.018C83.7676 134.137 83.6981 134.297 83.6565 134.473C83.5791 134.801 83.5976 135.134 83.9267 135.466C84.5235 136.062 86.074 137.056 88.3021 138.047C90.4965 139.023 93.2429 139.948 96.1507 140.457C99.1916 140.991 103.275 141.142 106.639 141.154C108.313 141.161 109.793 141.133 110.854 141.103C111.384 141.088 111.81 141.073 112.102 141.062C112.248 141.056 112.361 141.052 112.437 141.048L112.522 141.044L112.55 141.043L112.598 142.042C112.646 143.041 112.646 143.041 112.646 143.041L112.614 143.042L112.524 143.046C112.445 143.05 112.329 143.055 112.18 143.06C111.881 143.072 111.448 143.087 110.909 143.102C109.833 143.132 108.331 143.161 106.632 143.154C103.251 143.142 99.0249 142.992 95.8059 142.427C92.7136 141.886 89.8101 140.906 87.4895 139.874C85.2042 138.858 83.3753 137.743 82.5112 136.879L82.5084 136.876C81.5589 135.919 81.5226 134.807 81.71 134.013C81.725 133.95 81.7414 133.888 81.7589 133.828C81.6451 133.774 81.5272 133.714 81.4081 133.648C81.0497 133.449 80.6415 133.175 80.3028 132.814C79.9615 132.449 79.6474 131.947 79.5921 131.309C79.4894 130.142 79.9292 129.265 80.3809 128.7C80.4004 128.676 80.4199 128.652 80.4394 128.629C80.4216 128.603 80.4038 128.577 80.3861 128.551C80.001 127.975 79.6059 127.084 79.7689 125.987C79.9768 124.548 81.0768 123.886 81.8798 123.604C81.9706 123.573 82.0604 123.544 82.1482 123.519C82.1383 123.442 82.131 123.362 82.127 123.279C82.1042 122.81 82.1896 122.264 82.5047 121.727C82.8187 121.192 83.3205 120.735 84.0185 120.374L84.0215 120.372C84.6988 120.025 85.711 119.898 86.7473 119.857C87.8358 119.815 89.1349 119.864 90.5075 119.976C91.7802 120.081 93.1341 120.241 94.4674 120.438C94.277 120.276 94.1041 120.098 93.9662 119.903C93.7291 119.568 93.5458 119.116 93.6221 118.584C93.6957 118.071 93.9873 117.657 94.3353 117.331C94.8613 116.838 95.6305 116.635 96.3349 116.538C97.0835 116.435 97.9708 116.427 98.9166 116.476C100.813 116.574 103.088 116.914 105.256 117.315C107.431 117.717 109.53 118.187 111.082 118.556C111.859 118.74 112.501 118.9 112.949 119.013C113.173 119.07 113.349 119.115 113.469 119.147L113.606 119.183L113.655 119.195Z" fill="black"/>
<path d="M95.4083 136.132C95.4083 136.132 85.8183 134.322 83.0883 133.292L95.4083 136.132Z" fill="white"/>
<path fill-rule="evenodd" clip-rule="evenodd" d="M95.5937 135.149C95.5937 135.149 95.5938 135.149 95.4083 136.132C95.2228 137.115 95.2228 137.115 95.2227 137.115L95.1128 137.094C95.0413 137.08 94.9363 137.06 94.8019 137.034C94.533 136.982 94.1462 136.907 93.6736 136.814C92.7288 136.628 91.4398 136.368 90.0644 136.076C87.3515 135.501 84.187 134.775 82.7353 134.228L83.4413 132.356C84.7196 132.839 87.7151 133.533 90.4796 134.12C91.843 134.409 93.1221 134.667 94.0607 134.852C94.5299 134.944 94.9137 135.019 95.1799 135.07C95.313 135.096 95.4168 135.116 95.4871 135.129L95.5937 135.149Z" fill="black"/>
<path d="M81.8383 128.712C84.5683 129.102 91.7483 130.252 94.6083 130.812L81.8383 128.712Z" fill="white"/>
<path fill-rule="evenodd" clip-rule="evenodd" d="M94.4161 131.793C91.58 131.238 84.4189 130.091 81.6968 129.702L81.9797 127.722C84.7176 128.113 91.9165 129.266 94.8004 129.831L94.4161 131.793Z" fill="black"/>
<path d="M83.4583 124.332C87.8783 124.782 94.7583 125.742 94.7583 125.742L83.4583 124.332Z" fill="white"/>
<path fill-rule="evenodd" clip-rule="evenodd" d="M90.6365 126.197C88.3657 125.901 85.5523 125.55 83.357 125.327L83.5596 123.337C85.7843 123.564 88.6208 123.918 90.8951 124.214C92.0335 124.362 93.0334 124.497 93.7489 124.594C94.1066 124.643 94.3933 124.682 94.5906 124.709L94.8964 124.751C94.8964 124.751 94.8965 124.751 94.7583 125.742C94.6201 126.732 94.6201 126.732 94.62 126.732L94.3174 126.69C94.1213 126.663 93.8359 126.624 93.4796 126.576C92.7669 126.479 91.7706 126.345 90.6365 126.197Z" fill="black"/>
<path fill-rule="evenodd" clip-rule="evenodd" d="M73.1113 145.428C66.7412 147.381 57.4551 148.162 50.3268 148.082L50.3494 146.082C57.3811 146.161 66.4351 145.383 72.525 143.516L73.1113 145.428Z" fill="black"/>
<path fill-rule="evenodd" clip-rule="evenodd" d="M112.369 141.082C120.253 144.435 131.567 146.192 140.537 145.376L140.719 147.368C131.429 148.212 119.783 146.409 111.587 142.922L112.369 141.082Z" fill="black"/>
<path fill-rule="evenodd" clip-rule="evenodd" d="M119.922 116.18C124.181 114.491 129.452 112.691 133.034 112.533L133.122 114.531C129.924 114.672 124.95 116.338 120.659 118.039C118.539 118.879 116.628 119.711 115.247 120.333C114.556 120.644 113.999 120.902 113.615 121.082C113.423 121.172 113.274 121.242 113.174 121.29L113.06 121.344L113.032 121.358L113.024 121.362C113.024 121.362 113.023 121.362 112.588 120.462C112.153 119.562 112.153 119.562 112.153 119.561L112.164 119.556L112.195 119.541L112.314 119.485C112.418 119.435 112.57 119.363 112.766 119.271C113.158 119.087 113.725 118.825 114.426 118.509C115.827 117.879 117.767 117.034 119.922 116.18Z" fill="black"/>
<path d="M101.551 154.752L125.661 156.262C125.661 156.262 126.731 174.212 116.921 175.852C106.731 177.552 99.1411 172.232 101.551 154.752Z" fill="#FFC75B"/>
<path d="M30.4668 233.872L33.7066 176.382L85.8596 180.792L89.3721 233.692L30.4668 233.872Z" fill="#293E56"/>
<path d="M156.012 187.412L83.192 190.472L79.332 233.872H161.042L156.012 187.412Z" fill="#425A77"/>
<path d="M157.722 204.542L156.012 187.412L83.192 190.472L81.772 205.732L157.722 204.542Z" fill="#354A67"/>
<path d="M65.0123 199.462L0.472305 197.962L0.112305 233.872H69.6723L65.0123 199.462Z" fill="#354A67"/>
<path d="M67.3923 216.842L65.0123 199.462L0.472275 197.962L0.332275 215.532L67.3923 216.842Z" fill="#3D5572"/>
</svg>
