<svg width="85" height="93" viewBox="0 0 85 93" fill="none" xmlns="http://www.w3.org/2000/svg">
<path d="M69 0L0 58L84.5 92.5L69 0Z" fill="#D7E8EA"/>
<path fill-rule="evenodd" clip-rule="evenodd" d="M61.2196 20.5489C61.2198 20.5488 61.2199 20.5488 61.4942 21.5104L61.7685 22.472L61.7593 22.4747L61.7295 22.4833L61.6108 22.5176C61.5063 22.5481 61.3523 22.5932 61.1555 22.6518C60.7619 22.769 60.1977 22.9397 59.5179 23.1533C58.1569 23.5809 56.3382 24.1782 54.4988 24.8596C52.6528 25.5434 50.8153 26.3011 49.4033 27.0464C48.6952 27.4202 48.1259 27.7744 47.7235 28.096C47.5232 28.2561 47.3824 28.394 47.2899 28.5065C47.2457 28.5602 47.2182 28.6013 47.2013 28.63C47.3945 28.663 47.7056 28.6778 48.1624 28.6602C48.3323 28.6537 48.5299 28.6419 48.7381 28.6294C49.1633 28.6041 49.6329 28.576 50.0013 28.5846C50.2883 28.5913 50.6353 28.6186 50.9529 28.7265C51.2776 28.8368 51.7405 29.0959 51.9176 29.6643L52.2111 30.6063L51.2731 30.9124C49.1677 31.5995 46.5944 32.6381 44.4322 33.6981C43.3506 34.2284 42.3906 34.7549 41.6508 35.2362C40.8687 35.7449 40.4685 36.1184 40.3459 36.3134C40.1218 36.675 40.0824 36.9147 40.0833 37.0495C40.0842 37.1825 40.1247 37.2907 40.1913 37.391C40.2632 37.4994 40.3625 37.5918 40.4554 37.6605C40.4996 37.6932 40.5365 37.7162 40.5587 37.7291C40.5663 37.7336 40.5719 37.7367 40.5751 37.7384L42.241 38.5408L40.6469 39.4911L40.6427 39.4937C40.6362 39.4978 40.6239 39.5057 40.6066 39.5173C40.5719 39.5405 40.5186 39.5777 40.4546 39.6272C40.3232 39.7287 40.1632 39.8693 40.0248 40.035C39.7355 40.3814 39.6741 40.6503 39.7847 40.9157L39.7868 40.9209C39.9287 41.2665 40.2051 41.4882 40.5118 41.6338C40.6624 41.7053 40.8039 41.7499 40.906 41.7759C40.9562 41.7887 40.9945 41.7965 41.0166 41.8005C41.0254 41.8021 41.0315 41.8031 41.0346 41.8036L42.494 41.987L41.7822 43.2704C41.7811 43.2724 41.7796 43.2756 41.7777 43.2797C41.7701 43.2958 41.7563 43.3264 41.7402 43.3691C41.7074 43.4561 41.6685 43.5834 41.6478 43.7341C41.6075 44.0265 41.6352 44.3863 41.9016 44.7551L41.9027 44.7566C41.9168 44.7762 41.967 44.832 42.1352 44.8805C42.3071 44.93 42.535 44.951 42.7953 44.943C43.0492 44.9351 43.2925 44.9011 43.4761 44.8675C43.5664 44.851 43.6387 44.8352 43.6864 44.8241C43.7102 44.8186 43.7276 44.8143 43.7379 44.8117L43.7473 44.8093L45.1388 44.4311L45.0043 45.8603C45.0041 45.8639 45.0037 45.8714 45.0034 45.8822C45.0026 45.9082 45.0023 45.9519 45.0052 46.008C45.0113 46.1238 45.0304 46.2721 45.0768 46.419C45.162 46.6888 45.3113 46.908 45.6816 47.0039C46.4054 47.1864 48.0591 47.2425 50.2497 46.9801C52.4038 46.7221 54.9629 46.1696 57.4538 45.2197C60.0604 44.2277 63.3029 42.4537 65.9261 40.903C67.2303 40.1321 68.3682 39.4243 69.1798 38.9094C69.5855 38.652 69.9092 38.4431 70.131 38.2988C70.2419 38.2267 70.3273 38.1708 70.3847 38.1331L70.4495 38.0904L70.4693 38.0773L70.4702 38.0767L71.0232 38.9099C71.5761 39.7432 71.576 39.7432 71.5759 39.7433L71.5516 39.7593L71.4831 39.8045C71.4232 39.8439 71.3351 39.9016 71.2213 39.9755C70.9939 40.1234 70.6638 40.3364 70.2512 40.5982C69.4264 41.1215 68.2702 41.8407 66.9439 42.6247C64.3062 44.184 60.9415 46.0323 58.1658 47.0887C55.5001 48.1052 52.7785 48.6915 50.4875 48.9659C48.2347 49.2357 46.2799 49.2183 45.1891 48.9423L45.1854 48.9413C43.9624 48.6268 43.3988 47.7472 43.1696 47.021C43.1595 46.9892 43.1501 46.9576 43.1412 46.9263C43.0496 46.9335 42.9546 46.939 42.8573 46.942C42.4807 46.9537 42.0255 46.9303 41.5813 46.8023C41.1335 46.6732 40.6348 46.4184 40.2798 45.9255C39.6413 45.0411 39.5747 44.1283 39.6665 43.4614C39.6671 43.4567 39.6678 43.452 39.6684 43.4473C39.6636 43.445 39.6588 43.4428 39.6539 43.4405C39.0746 43.1654 38.3315 42.6405 37.9376 41.6826C37.4126 40.4198 37.9855 39.3568 38.4898 38.7529C38.5291 38.7058 38.5689 38.6604 38.6088 38.6165C38.5803 38.5781 38.5523 38.5383 38.525 38.4972C38.2812 38.1298 38.0873 37.648 38.0833 37.0629C38.0794 36.4799 38.2647 35.8741 38.6477 35.257L38.6494 35.2542C39.0272 34.6501 39.7723 34.0722 40.5602 33.5597C41.3919 33.0187 42.4295 32.4525 43.5518 31.9023C44.5075 31.4338 45.5382 30.9702 46.5761 30.5369C46.4505 30.5034 46.3285 30.4618 46.2128 30.4105C45.8577 30.2532 45.4835 29.9714 45.2845 29.4942C45.0927 29.0342 45.1314 28.5528 45.2548 28.1261C45.4439 27.469 45.9682 26.9388 46.4747 26.5339C47.016 26.1011 47.7083 25.6796 48.4697 25.2777C49.9966 24.4717 51.9293 23.6786 53.8041 22.9841C55.6855 22.2872 57.5382 21.6789 58.9184 21.2453C59.6092 21.0283 60.183 20.8546 60.5848 20.7349C60.7857 20.6751 60.9437 20.6288 61.0518 20.5973L61.1758 20.5614L61.2196 20.5489Z" fill="white"/>
<path fill-rule="evenodd" clip-rule="evenodd" d="M43.0125 45.9679C42.9154 45.4243 43.2774 44.9048 43.821 44.8076C45.0311 44.5914 47.6771 43.7451 50.1032 42.9182C51.2979 42.511 52.4124 42.1181 53.2286 41.8268C53.6365 41.6812 53.9695 41.5612 54.2004 41.4776C54.3158 41.4358 54.4057 41.4031 54.4666 41.3809L54.5586 41.3473L54.9027 42.2862C55.2466 43.2253 55.2466 43.2253 55.2465 43.2253L55.1511 43.2601C55.0891 43.2827 54.998 43.3158 54.8813 43.3581C54.648 43.4426 54.312 43.5637 53.9008 43.7104C53.0787 44.0038 51.9548 44.4002 50.7484 44.8113C48.3722 45.6211 45.5653 46.5276 44.1728 46.7765C43.6291 46.8736 43.1097 46.5116 43.0125 45.9679ZM55.8418 41.9424C56.0317 42.461 55.7651 43.0354 55.2465 43.2253L54.9027 42.2862L54.5586 41.3473C55.0772 41.1574 55.6518 41.4238 55.8418 41.9424Z" fill="white"/>
<path fill-rule="evenodd" clip-rule="evenodd" d="M39.9765 43.1928C39.7636 42.6832 40.0041 42.0975 40.5137 41.8846C42.8267 40.9185 48.9659 38.4749 51.4744 37.5756C51.9943 37.3892 52.5669 37.6595 52.7532 38.1794C52.9396 38.6993 52.6693 39.2718 52.1494 39.4582C49.6867 40.3411 43.5829 42.7701 41.2846 43.7301C40.775 43.943 40.1893 43.7024 39.9765 43.1928Z" fill="white"/>
<path fill-rule="evenodd" clip-rule="evenodd" d="M39.2215 39.0695C38.9882 38.5689 39.2048 37.974 39.7054 37.7407C41.5432 36.8842 43.916 35.8432 45.8237 35.0187C46.7787 34.6059 47.6194 34.2465 48.2214 33.9901C48.5224 33.862 48.7639 33.7596 48.9301 33.6891L49.1879 33.5802L49.5764 34.5016L49.9648 35.4231L49.71 35.5308C49.5448 35.6008 49.3046 35.7027 49.0049 35.8303C48.4054 36.0855 47.5681 36.4436 46.6171 36.8546C44.7127 37.6777 42.3612 38.7095 40.5503 39.5535C40.0497 39.7868 39.4548 39.5701 39.2215 39.0695ZM50.4979 34.1132C50.7124 34.6221 50.4737 35.2086 49.9648 35.4231L49.5764 34.5016L49.1879 33.5802C49.6968 33.3656 50.2833 33.6042 50.4979 34.1132Z" fill="white"/>
<path fill-rule="evenodd" clip-rule="evenodd" d="M72.8456 37.5587C73.6696 37.2535 74.6915 36.875 75.75 36.875L75.75 38.875C75.0865 38.875 74.3844 39.1218 73.4748 39.4584C73.4488 39.468 73.4226 39.4777 73.3962 39.4875C72.5777 39.7908 71.5648 40.1662 70.5217 40.1662V38.1662C71.1733 38.1662 71.8679 37.9205 72.7806 37.5827C72.8022 37.5748 72.8238 37.5668 72.8456 37.5587Z" fill="white"/>
<path fill-rule="evenodd" clip-rule="evenodd" d="M64.0135 18.2385C66.1116 16.6109 68.9016 14.7186 71.3573 14.0365L71.8926 15.9635C69.8484 16.5314 67.3274 18.199 65.2394 19.8188C64.2139 20.6142 63.3249 21.3726 62.6922 21.9321C62.3762 22.2116 62.125 22.4408 61.9537 22.5992C61.868 22.6785 61.8023 22.74 61.7586 22.7812L61.7096 22.8276L61.6979 22.8387L61.6953 22.8412C61.6953 22.8412 61.6949 22.8416 61.0028 22.1197C60.3108 21.3979 60.3109 21.3978 60.311 21.3976L60.3167 21.3922L60.3315 21.3781L60.3868 21.3258C60.4349 21.2804 60.5052 21.2146 60.5957 21.1309C60.7767 20.9635 61.039 20.7243 61.3672 20.434C62.0231 19.8539 62.9459 19.0667 64.0135 18.2385Z" fill="white"/>
<path fill-rule="evenodd" clip-rule="evenodd" d="M67.2297 30.1957C65.4056 27.4593 63.0548 24.8131 60.8057 22.3671L62.2779 21.0134C64.5285 23.4611 66.9749 26.2076 68.8939 29.0864C70.8066 31.9558 72.2638 35.0552 72.4184 38.2105L70.4208 38.3084C70.292 35.68 69.0601 32.9416 67.2297 30.1957Z" fill="white"/>
<path fill-rule="evenodd" clip-rule="evenodd" d="M35.0769 64.4851C35.0767 64.4852 35.0766 64.4853 35.7711 65.2048L36.4655 65.9244L36.4724 65.9177L36.4948 65.8962L36.584 65.8108C36.6627 65.7357 36.7791 65.625 36.9284 65.4842C37.2272 65.2024 37.6578 64.7999 38.1835 64.3188C39.236 63.3558 40.6648 62.0819 42.1767 60.8322C43.6941 59.5779 45.271 58.3681 46.6239 57.5203C47.3024 57.0951 47.8944 56.7802 48.3744 56.5933C48.6134 56.5004 48.8033 56.4476 48.947 56.424C49.0156 56.4127 49.065 56.4095 49.0982 56.4093C49.0299 56.593 48.8868 56.8696 48.6425 57.256C48.5516 57.3997 48.4423 57.5647 48.3271 57.7386C48.0919 58.0938 47.8322 58.486 47.6549 58.809C47.5167 59.0607 47.3663 59.3746 47.3004 59.7035C47.233 60.0397 47.2251 60.5701 47.628 61.0084L48.2958 61.7347L49.031 61.0767C50.6813 59.5997 52.8703 57.8942 54.8717 56.5551C55.8729 55.8853 56.8098 55.3187 57.5972 54.92C58.4295 54.4985 58.9534 54.3395 59.1836 54.3313C59.6087 54.3187 59.8359 54.4048 59.9521 54.4732C60.0667 54.5406 60.14 54.63 60.1934 54.7379C60.2511 54.8545 60.2813 54.9867 60.2941 55.1015C60.3002 55.1562 60.3016 55.1996 60.3017 55.2253C60.3017 55.2341 60.3016 55.2405 60.3015 55.2441L60.1603 57.0878L61.7819 56.1852L61.7862 56.1829C61.793 56.1793 61.8061 56.1726 61.8247 56.1635C61.8622 56.1451 61.9211 56.1176 61.9961 56.087C62.1497 56.0243 62.3516 55.9564 62.5644 55.9197C63.0092 55.8431 63.2726 55.9249 63.4468 56.1537L63.4502 56.1581C63.6781 56.4541 63.7312 56.8045 63.7034 57.1428C63.6897 57.309 63.6574 57.4537 63.6287 57.5552C63.6146 57.605 63.6021 57.642 63.5945 57.6632C63.5915 57.6716 63.5893 57.6774 63.5882 57.6803L63.015 59.035L64.4823 59.0626C64.4846 59.0628 64.488 59.063 64.4926 59.0634C64.5104 59.0649 64.5437 59.0684 64.5888 59.0759C64.6804 59.0911 64.8101 59.1213 64.9509 59.1789C65.2241 59.2907 65.5214 59.495 65.7069 59.9105L65.7077 59.9122C65.7176 59.9342 65.7407 60.0057 65.6983 60.1754C65.6549 60.349 65.5588 60.5568 65.4213 60.7779C65.2872 60.9936 65.1357 61.1871 65.0146 61.329C64.955 61.3989 64.9051 61.4536 64.8716 61.4893C64.8549 61.5071 64.8424 61.52 64.835 61.5275L64.8282 61.5345L63.8033 62.5487L65.1071 63.1491C65.1104 63.1507 65.117 63.1541 65.1266 63.1593C65.1495 63.1716 65.1875 63.1933 65.2345 63.224C65.3317 63.2873 65.4504 63.3782 65.5542 63.492C65.7449 63.701 65.8597 63.9401 65.7569 64.3085C65.5518 65.0263 64.7711 66.4852 63.4456 68.2488C62.1421 69.9831 60.3808 71.9202 58.3099 73.5988C56.1444 75.3565 52.9837 77.2722 50.3265 78.7641C49.0055 79.5058 47.8225 80.1354 46.97 80.5793C46.5439 80.8012 46.2008 80.9766 45.9648 81.0962C45.8468 81.1559 45.7556 81.2018 45.6942 81.2325L45.6248 81.2671L45.6035 81.2777L45.6026 81.2782L46.0461 82.1745C46.4898 83.0706 46.4898 83.0706 46.49 83.0705L46.516 83.0576L46.5894 83.021C46.6535 82.9889 46.7476 82.9416 46.8686 82.8803C47.1107 82.7577 47.4605 82.5789 47.8938 82.3532C48.7602 81.902 49.9623 81.2623 51.3057 80.508C53.9775 79.0079 57.2639 77.0237 59.5698 75.152C61.786 73.3555 63.6581 71.2949 65.0444 69.4504C66.4075 67.6367 67.3727 65.9366 67.6809 64.8545L67.682 64.8508C68.0232 63.635 67.5448 62.7063 67.0315 62.1438C67.009 62.1191 66.9864 62.0951 66.9638 62.0717C67.016 61.9961 67.0683 61.9167 67.1197 61.834C67.3187 61.514 67.5267 61.1085 67.6387 60.66C67.7516 60.2078 67.7813 59.6486 67.5328 59.0943C67.0879 58.0983 66.3315 57.5829 65.7085 57.3279C65.7041 57.3261 65.6997 57.3244 65.6953 57.3226C65.6958 57.3173 65.6962 57.312 65.6967 57.3066C65.7492 56.6674 65.6678 55.7614 65.0365 54.9401C64.2073 53.8527 63.0003 53.8152 62.225 53.9488C62.1645 53.9592 62.1052 53.9708 62.0473 53.9833C62.0283 53.9394 62.0079 53.8953 61.986 53.8509C61.7905 53.4558 61.4709 53.0464 60.9666 52.7496C60.4641 52.4538 59.8472 52.3103 59.1212 52.3322L59.1179 52.3323C58.4058 52.3562 57.5321 52.7111 56.6936 53.1357C55.8085 53.584 54.7984 54.1978 53.7595 54.8929C52.8749 55.4847 51.957 56.144 51.0616 56.8247C51.0956 56.6992 51.1208 56.5728 51.1344 56.447C51.1764 56.0608 51.1203 55.5958 50.8072 55.1843C50.5054 54.7877 50.0695 54.5798 49.6384 54.4725C48.9751 54.3067 48.2535 54.4943 47.6491 54.7295C47.0033 54.9808 46.2914 55.3684 45.5619 55.8256C44.0989 56.7424 42.4434 58.0169 40.9025 59.2906C39.3561 60.5689 37.9006 61.8667 36.8333 62.8434C36.2992 63.3322 35.8612 63.7416 35.5562 64.0292C35.4037 64.173 35.2844 64.2865 35.2029 64.3642L35.1097 64.4535L35.0769 64.4851Z" fill="white"/>
<path fill-rule="evenodd" clip-rule="evenodd" d="M66.1992 61.4798C65.7775 61.1231 65.1465 61.1758 64.7898 61.5975C63.996 62.5359 61.9368 64.4007 60.0048 66.0851C59.0534 66.9146 58.1546 67.6818 57.4933 68.2418C57.1628 68.5217 56.8919 68.7496 56.7038 68.9075C56.6097 68.9864 56.5364 69.0477 56.4867 69.0893L56.4115 69.152L57.0512 69.9206C57.6912 70.689 57.6912 70.689 57.6913 70.6889L57.7692 70.6239C57.8199 70.5816 57.8942 70.5194 57.9892 70.4396C58.1794 70.2801 58.4527 70.0502 58.7858 69.768C59.4519 69.2039 60.3584 68.4302 61.3191 67.5926C63.2113 65.943 65.4033 63.9691 66.3168 62.8891C66.6735 62.4675 66.6208 61.8365 66.1992 61.4798ZM56.2828 70.5606C56.6362 70.985 57.2669 71.0424 57.6913 70.6889L57.0512 69.9206L56.4115 69.152C55.9871 69.5055 55.9294 70.1362 56.2828 70.5606Z" fill="white"/>
<path fill-rule="evenodd" clip-rule="evenodd" d="M65.3207 57.4615C64.9865 57.0218 64.3592 56.9362 63.9195 57.2703C61.9236 58.7869 56.7309 62.8729 54.6948 64.5923C54.2729 64.9486 54.2197 65.5795 54.576 66.0015C54.9323 66.4235 55.5632 66.4767 55.9852 66.1204C57.984 64.4324 63.1464 60.3697 65.1295 58.8627C65.5692 58.5286 65.6548 57.9012 65.3207 57.4615Z" fill="white"/>
<path fill-rule="evenodd" clip-rule="evenodd" d="M62.132 54.7406C61.8159 54.2877 61.1925 54.1768 60.7396 54.4929C59.077 55.6534 56.9865 57.1842 55.3165 58.4212C54.4804 59.0405 53.7478 59.5876 53.2242 59.9799C52.9623 60.1761 52.7527 60.3336 52.6084 60.4421L52.3848 60.6104L52.9872 61.4087L53.5897 62.2068L53.8106 62.0404C53.954 61.9326 54.1626 61.7758 54.4233 61.5805C54.9448 61.1899 55.6744 60.645 56.5069 60.0284C58.1741 58.7934 60.2459 57.2765 61.8843 56.1329C62.3372 55.8168 62.448 55.1934 62.132 54.7406ZM52.189 62.0111C52.5217 62.4519 53.1488 62.5395 53.5897 62.2068L52.9872 61.4087L52.3848 60.6104C51.944 60.9432 51.8563 61.5703 52.189 62.0111Z" fill="white"/>
<path fill-rule="evenodd" clip-rule="evenodd" d="M43.9632 83.0735C43.2859 83.6334 42.446 84.3277 41.9151 85.2435L43.6455 86.2464C43.9782 85.6724 44.5438 85.1888 45.2912 84.5706C45.3126 84.5529 45.3341 84.5351 45.3558 84.5172C46.0287 83.9611 46.8614 83.273 47.3845 82.3705L45.6541 81.3676C45.3273 81.9314 44.7665 82.4091 44.0165 83.0294C43.9988 83.044 43.9811 83.0587 43.9632 83.0735Z" fill="white"/>
<path fill-rule="evenodd" clip-rule="evenodd" d="M31.6769 65.7437C29.2166 66.7427 26.1804 68.2076 24.3587 69.9901L25.7575 71.4196C27.2739 69.9358 29.9809 68.5909 32.4294 67.5967C33.6318 67.1085 34.7338 66.7196 35.5351 66.4528C35.9354 66.3196 36.2596 66.2172 36.4827 66.1484C36.5942 66.114 36.6803 66.088 36.738 66.0708L36.8026 66.0517L36.8181 66.0472L36.8216 66.0462C36.8215 66.0462 36.8221 66.046 36.5446 65.0853C36.2672 64.1245 36.267 64.1246 36.2668 64.1246L36.2593 64.1268L36.2397 64.1326L36.1666 64.1542C36.1033 64.1731 36.0111 64.2008 35.8933 64.2372C35.6577 64.3098 35.3192 64.4168 34.9034 64.5552C34.0727 64.8317 32.9288 65.2353 31.6769 65.7437Z" fill="white"/>
<path fill-rule="evenodd" clip-rule="evenodd" d="M40.4091 74.5225C38.9564 71.5721 37.8459 68.2112 36.8575 65.0388L34.9481 65.6337C35.9371 68.8082 37.0865 72.3021 38.6149 75.406C40.1382 78.4998 42.0889 81.3148 44.7413 83.0309L45.8277 81.3517C43.6183 79.9221 41.8669 77.4831 40.4091 74.5225Z" fill="white"/>
</svg>
