<svg width="21" height="20" viewBox="0 0 21 20" fill="none" xmlns="http://www.w3.org/2000/svg">
<path d="M9.60823 17.1834L9.60679 17.1821C6.98988 14.8091 4.89838 12.9075 3.44943 11.1348C2.01146 9.37556 1.31116 7.8658 1.31116 6.29326C1.31116 3.73003 3.30317 1.74573 5.85869 1.74573C7.31143 1.74573 8.72229 2.42719 9.63875 3.49499L10.3976 4.37913L11.1564 3.49499C12.0729 2.42719 13.4837 1.74573 14.9365 1.74573C17.492 1.74573 19.484 3.73003 19.484 6.29326C19.484 7.8658 18.7837 9.37556 17.3457 11.1348C15.8968 12.9075 13.8053 14.8091 11.1884 17.1821L11.1869 17.1834L10.3976 17.902L9.60823 17.1834Z" stroke="#36425B" stroke-width="2"/>
</svg>
