<svg width="18" height="18" viewBox="0 0 18 18" fill="none" xmlns="http://www.w3.org/2000/svg">
<path d="M12.7129 11.3698H11.9229L11.6429 11.0998C12.6229 9.95975 13.2129 8.47975 13.2129 6.86975C13.2129 3.27975 10.3029 0.369751 6.71289 0.369751C3.12289 0.369751 0.212891 3.27975 0.212891 6.86975C0.212891 10.4598 3.12289 13.3698 6.71289 13.3698C8.32289 13.3698 9.80289 12.7798 10.9429 11.7998L11.2129 12.0798V12.8698L16.2129 17.8598L17.7029 16.3698L12.7129 11.3698ZM6.71289 11.3698C4.22289 11.3698 2.21289 9.35975 2.21289 6.86975C2.21289 4.37975 4.22289 2.36975 6.71289 2.36975C9.20289 2.36975 11.2129 4.37975 11.2129 6.86975C11.2129 9.35975 9.20289 11.3698 6.71289 11.3698Z" fill="#303030"/>
</svg>
