<svg width="29" height="26" viewBox="0 0 29 26" fill="none" xmlns="http://www.w3.org/2000/svg">
<path d="M2.4603 9.17443H20.8084L17.7076 3.30302L17.6526 2.89936C17.6526 2.36727 17.8727 1.89022 18.2397 1.5416L19.6525 0.183838L27.3587 9.17443C27.8541 9.65148 28.1477 10.2937 28.1477 11.0092V22.9355C28.1477 24.3483 26.8633 25.6878 25.3955 25.6878H17.3957C16.2765 25.6878 15.304 25.0456 14.937 24.1282L10.9004 15.0642L10.6619 12.8441H2.4603C1.97368 12.8441 1.50699 12.6507 1.16289 12.3067C0.818798 11.9626 0.625488 11.4959 0.625488 11.0092C0.625488 10.5226 0.818798 10.0559 1.16289 9.71183C1.50699 9.36774 1.97368 9.17443 2.4603 9.17443Z" fill="white"/>
</svg>
