<svg width="29" height="26" viewBox="0 0 29 26" fill="none" xmlns="http://www.w3.org/2000/svg">
<path d="M26.4063 9.17443H8.05813L11.159 3.30302L11.214 2.89936C11.214 2.36727 10.9938 1.89022 10.6269 1.5416L9.21406 0.183838L1.50784 9.17443C1.01244 9.65148 0.718872 10.2937 0.718872 11.0092V22.9355C0.718872 24.3483 2.00324 25.6878 3.47109 25.6878H11.4709C12.5901 25.6878 13.5626 25.0456 13.9295 24.1282L17.9661 15.0642L18.2047 12.8441H26.4063C26.8929 12.8441 27.3596 12.6507 27.7037 12.3067C28.0478 11.9626 28.2411 11.4959 28.2411 11.0092C28.2411 10.5226 28.0478 10.0559 27.7037 9.71183C27.3596 9.36774 26.8929 9.17443 26.4063 9.17443Z" fill="white"/>
</svg>
