<svg width="80" height="83" viewBox="0 0 80 83" fill="none" xmlns="http://www.w3.org/2000/svg">
<path d="M0 24.5227L5.85366 60.3636L29.2683 83L61.4634 79.2273L79.0244 56.5909L80 24.5227L58.5366 0L26.3415 0.943182L0 24.5227Z" fill="#D7E8EA"/>
<path fill-rule="evenodd" clip-rule="evenodd" d="M58.1392 34.9797L58.2572 35.9031C59.0479 42.091 59.0377 48.7677 57.1002 54.0655C56.1262 56.729 54.6521 59.0789 52.5156 60.8278C50.372 62.5824 47.6209 63.683 44.1818 63.9355C37.3481 64.4372 32.2211 61.9882 28.8531 57.2624C25.5333 52.6041 24 45.8454 24 37.8237V36.8778L58.1392 34.9797ZM26.0074 38.7692C26.1247 46.1544 27.6262 52.0946 30.4819 56.1016C33.4103 60.2107 37.8377 62.3959 44.0353 61.9409C47.1119 61.715 49.459 60.7451 51.2488 59.2801C53.0456 57.8093 54.3399 55.7903 55.2219 53.3786C56.9066 48.7718 57.0392 42.8612 56.3847 37.0803L26.0074 38.7692Z" fill="white"/>
<path fill-rule="evenodd" clip-rule="evenodd" d="M45.4686 21.0686C43.8494 20.1438 41.6526 19.656 38.6105 19.994C34.6705 20.4318 32.5456 23.2165 31.4916 26.8418C30.4311 30.489 30.5438 34.7683 30.988 37.5949L29.0122 37.9053C28.5397 34.8985 28.4024 30.3029 29.5711 26.2834C30.7462 22.242 33.3297 18.5684 38.3896 18.0062C41.7546 17.6323 44.3967 18.1532 46.4605 19.3319C48.5214 20.5089 49.9065 22.2853 50.8608 24.2476C52.3961 27.4045 52.8862 31.2346 53.2547 34.1141C53.3353 34.7443 53.4102 35.329 53.4888 35.8511L51.5112 36.1491C51.4207 35.5488 51.3375 34.9059 51.2507 34.2346C50.8781 31.3548 50.4376 27.9503 49.0622 25.1223C48.2329 23.417 47.0908 21.995 45.4686 21.0686Z" fill="white"/>
<path fill-rule="evenodd" clip-rule="evenodd" d="M39.6593 43.6731C39.2395 43.973 38.9375 44.4165 38.9375 45.125C38.9375 45.5425 39.0965 45.8891 39.3563 46.1907C39.779 46.6813 40.2108 47.2993 40.4748 47.9884C40.7408 48.6829 40.8601 49.5197 40.5351 50.3614L39.3956 53.3125H44.6101L42.731 49.3288C42.2 48.2031 42.481 46.992 42.9429 46.1194C43.1944 45.6442 43.2977 45.2303 43.2591 44.9476C43.2049 44.5497 42.9522 44.0997 42.5375 43.7376C42.1225 43.3752 41.6445 43.1875 41.25 43.1875C40.7325 43.1875 40.1172 43.346 39.6593 43.6731ZM38.4969 42.0456C39.3515 41.4352 40.3924 41.1875 41.25 41.1875C42.2304 41.1875 43.1587 41.6248 43.853 42.2311C44.5478 42.8378 45.1076 43.7003 45.2408 44.6774C45.3632 45.5749 45.0351 46.4419 44.7105 47.055C44.4125 47.6182 44.3778 48.132 44.5399 48.4756L47.7648 55.3125H36.4794L38.6694 49.6409C38.7621 49.4008 38.7581 49.098 38.6071 48.7037C38.454 48.304 38.1751 47.8839 37.841 47.496C37.3341 46.9075 36.9375 46.1133 36.9375 45.125C36.9375 43.7085 37.6041 42.6833 38.4969 42.0456Z" fill="white"/>
</svg>
