<svg width="20" height="20" viewBox="0 0 20 20" fill="none" xmlns="http://www.w3.org/2000/svg">
<path d="M10.491 0.0245361C11.7507 0.0245361 12.9589 0.524981 13.8497 1.41578C14.7405 2.30658 15.241 3.51476 15.241 4.77454C15.241 6.03431 14.7405 7.2425 13.8497 8.13329C12.9589 9.02409 11.7507 9.52454 10.491 9.52454C9.23119 9.52454 8.02301 9.02409 7.13221 8.13329C6.24141 7.2425 5.74097 6.03431 5.74097 4.77454C5.74097 3.51476 6.24141 2.30658 7.13221 1.41578C8.02301 0.524981 9.23119 0.0245361 10.491 0.0245361ZM10.491 11.8995C15.7397 11.8995 19.991 14.0252 19.991 16.6495V19.0245H0.990967V16.6495C0.990967 14.0252 5.24222 11.8995 10.491 11.8995Z" fill="#36425B"/>
</svg>
