<svg width="41" height="41" viewBox="0 0 41 41" fill="none" xmlns="http://www.w3.org/2000/svg">
<path d="M20.9016 0.62793C23.5538 0.62793 26.0973 1.6815 27.9727 3.55686C29.848 5.43223 30.9016 7.97576 30.9016 10.6279C30.9016 13.2801 29.848 15.8236 27.9727 17.699C26.0973 19.5744 23.5538 20.6279 20.9016 20.6279C18.2494 20.6279 15.7059 19.5744 13.8305 17.699C11.9552 15.8236 10.9016 13.2801 10.9016 10.6279C10.9016 7.97576 11.9552 5.43223 13.8305 3.55686C15.7059 1.6815 18.2494 0.62793 20.9016 0.62793ZM20.9016 25.6279C31.9516 25.6279 40.9016 30.1029 40.9016 35.6279V40.6279H0.901611V35.6279C0.901611 30.1029 9.85161 25.6279 20.9016 25.6279Z" fill="white"/>
</svg>
