<svg width="440" height="962" viewBox="0 0 440 962" fill="none" xmlns="http://www.w3.org/2000/svg">
<path opacity="0.6" d="M-235.346 132.06L-302.269 207.573C-344.912 255.688 -372.149 315.484 -380.462 379.236L-384.226 408.095C-386.148 422.834 -385.71 437.784 -382.928 452.384L-378.027 478.111C-363.731 553.156 -283.455 595.505 -213.443 564.936C-142.435 533.933 -61.2017 577.946 -48.3938 654.361L-21.8231 812.89C-2.83763 926.163 116.94 991.999 222.745 947.318L350.286 893.459C494.21 832.68 455.862 618.949 299.785 611.997C224.833 608.659 164.502 549.262 159.995 474.371L157.133 426.807C154.547 383.836 167.975 341.43 194.824 307.779C250.092 238.508 244.503 138.774 181.841 76.112L165.287 59.5572C104.407 -1.32287 11.429 -16.4803 -65.6347 21.9117L-139.897 58.908C-176.108 76.9481 -208.513 101.783 -235.346 132.06Z" fill="#F5F5F5"/>
</svg>
