<svg width="313" height="962" viewBox="0 0 313 962" fill="none" xmlns="http://www.w3.org/2000/svg">
<path opacity="0.6" d="M150.654 132.061L83.7307 207.573C41.0884 255.689 13.8514 315.484 5.53774 379.236L1.77431 408.095C-0.147661 422.834 0.29031 437.784 3.07177 452.385L7.97279 478.111C22.2691 553.156 102.545 595.505 172.557 564.937C243.565 533.933 324.798 577.946 337.606 654.361L364.177 812.89C383.162 926.163 502.94 991.999 608.745 947.318L736.286 893.459C880.21 832.68 841.862 618.949 685.785 611.998C610.833 608.659 550.502 549.262 545.995 474.371L543.133 426.808C540.547 383.836 553.975 341.43 580.824 307.779C636.092 238.508 630.503 138.774 567.841 76.1122L551.287 59.5574C490.406 -1.32264 397.429 -16.4802 320.365 21.9119L246.103 58.9082C209.892 76.9484 177.487 101.783 150.654 132.061Z" fill="#F5F5F5"/>
</svg>
