<svg width="536" height="908" viewBox="0 0 536 908" fill="none" xmlns="http://www.w3.org/2000/svg">
<path opacity="0.6" d="M-284.257 201.138L-329.356 291.398C-358.092 348.911 -368.925 413.718 -360.455 477.45L-356.621 506.3C-354.662 521.033 -350.37 535.361 -343.904 548.744L-332.512 572.326C-299.28 641.113 -210.779 661.242 -151.064 613.595C-90.4994 565.27 -0.642812 586.758 31.5065 657.255L98.2022 803.505C145.858 908.004 278.594 940.596 369.229 870.054L478.484 785.019C601.774 689.062 509.415 492.538 356.857 526.219C283.595 542.394 209.947 500.635 186.21 429.463L171.135 384.261C157.515 343.422 159.51 298.986 176.735 259.533C212.191 178.318 180.979 83.4283 104.235 39.1197L83.9592 27.4137C9.3967 -15.635 -84.3356 -6.21166 -148.837 50.8178L-210.993 105.774C-241.302 132.572 -266.175 164.947 -284.257 201.138Z" fill="#F5F5F5"/>
</svg>
